<?xml version="1.0" encoding="UTF-8" standalone="no"?><!DOCTYPE svg PUBLIC "-//W3C//DTD SVG 1.1//EN" "http://www.w3.org/Graphics/SVG/1.1/DTD/svg11.dtd"><svg width="100%" height="100%" viewBox="0 0 596 420" version="1.1" xmlns="http://www.w3.org/2000/svg" xmlns:xlink="http://www.w3.org/1999/xlink" xml:space="preserve" xmlns:serif="http://www.serif.com/" style="fill-rule:evenodd;clip-rule:evenodd;stroke-linejoin:round;stroke-miterlimit:2;"><path d="M235.999,107.043c0.116,-0.074 0.117,-0.294 0.746,-0.474c0.479,-0.137 0.509,-0.067 0.827,-0.322c0.637,-0.511 -0.275,-1.098 -0.356,-1.15c-0.231,-0.149 -2.025,-0.889 -4.881,-3.042c-0.816,-0.615 -4.315,-3.009 -1.727,-3.831c0.12,-0.038 1.293,-0.411 1.397,-0.717c0.095,-0.278 0.01,-0.274 -0.182,-0.486c-0.497,-0.548 -0.573,-0.449 -2.964,-1.522c-0.384,-0.172 -2.426,-0.823 -4.315,-3.57c-0.073,-0.107 -0.914,-1.329 0.441,-1.559c0.615,-0.104 8.947,-0.848 15.089,4.542c1.673,1.468 3.607,3.597 4.349,5.081c1.322,2.645 2.752,5.48 3.224,9.969c0.139,1.326 0.497,2.051 1.411,1.074c0.412,-0.441 0.317,-0.506 0.736,-0.944c2.295,-2.401 5.603,-4.209 6.137,-4.501c1.058,-0.578 5.644,-2.604 9.513,-2.479c6.906,0.224 11.071,3.376 11.869,3.981c0.93,0.704 2.18,1.607 2.132,2.339c-0.021,0.326 -0.06,0.914 -3.873,1.277c-3.281,0.312 -5.499,-1.448 -6.234,-0.755c-0.519,0.489 0.227,1.486 0.305,1.59c1.368,1.827 -0.224,1.802 -2.509,1.936c-5.848,0.345 -7.59,-1.487 -7.8,-0.086c-0.051,0.342 0.303,1.49 0.253,1.636c-0.186,0.541 -0.278,0.496 -0.832,0.65c-0.464,0.129 -0.46,0.104 -0.498,0.12c-0.197,0.084 -0.144,0.155 -0.334,0.236c-0.153,0.007 -1.782,0.085 -1.894,0.294c-0.065,0.121 0.068,0.268 0.12,0.396c0.095,0.233 -0.109,0.241 -0.047,0.319c0.131,0.164 0.861,0.144 0.937,0.142c0.693,-0.019 0.855,-0.197 0.979,-0.226c0.282,-0.031 2.386,-0.527 6.888,0.183c14.363,2.266 18.005,12.546 19.006,15.362c0.137,0.386 0.698,1.965 0.936,5.032c0.119,1.544 -1.237,0.982 -1.358,0.931c-0.909,-0.377 -3.553,-1.987 -4.35,-2.819c-0.558,-0.582 -2.206,-3 -3.453,-4.539c-0.065,-0.081 -0.054,-0.241 -0.154,-0.27c-0.297,-0.086 -0.892,0.419 -0.92,0.575c-0.15,0.819 0.057,0.835 -0.114,1.648c-0.024,0.113 -0.211,0.999 -1.146,0.874c-0.328,-0.044 -1.827,-0.9 -3.372,-2.073c-3.19,-2.423 -3.049,-2.578 -5.58,-5.69c-0.229,-0.282 -0.252,-0.276 -0.616,-0.275c-0.792,0.002 -0.46,0.414 -0.669,1.494c-0.349,1.798 -2.308,0.687 -4.464,-0.433c-0.243,-0.126 -2.401,-1.367 -2.785,-1.36c-0.172,0.003 -0.984,0.402 -0.299,1.08c0.581,0.575 1.885,0.984 4.212,4.143c0.496,0.674 2.366,2.826 3.418,7.838c1.118,5.325 -0.536,9.794 -0.83,10.591c-0.699,1.889 -0.784,1.843 -1.946,3.497c-0.576,0.82 -1.396,0.683 -1.779,0.005c-0.26,-0.461 -1.284,-2.657 -1.394,-3.985c-0.116,-1.412 1.147,-5.164 -0.232,-5.157c-0.679,0.004 -1.221,1.421 -2.184,1.081c-0.685,-0.242 -1.472,-3.347 -1.549,-3.821c-0.535,-3.268 0.34,-5.909 -0.781,-5.941c-0.646,-0.018 -0.893,0.752 -1.649,0.799c-0.933,0.059 -0.683,-1.759 -4.122,-6.512c-1.389,-1.919 -1.5,-2.119 -2.071,-2.122c-0.595,-0.003 -0.514,0.183 -0.836,0.691c-0.964,1.519 -3.778,7.317 -5.469,13.653c-0.478,1.792 -2.095,7.183 -2.759,15.203c-0.069,0.836 -0.14,1.476 0.37,1.95c0.951,0.886 4.9,0.405 14.921,4.667c9.773,4.156 10.422,5.089 16.095,8.775c0.493,0.32 5.665,4.461 7.324,6.095c3.693,3.638 3.663,3.662 6.936,7.692c0.244,0.301 0.219,0.316 2.836,3.922c0.717,0.987 4.946,7.988 6.723,12.964c2.69,7.536 4.704,15.684 3.931,27.569c-0.042,0.647 -0.032,0.64 -0.739,6.163c-0.415,3.242 -2.125,10.795 -5.321,16.419c-0.28,0.493 -0.571,1.524 -2.917,4.451c-2.674,3.337 -6.067,5.521 -7.385,6.127c-3.298,1.517 -7.272,3.513 -20.824,0.679c-12.225,-2.556 -17.364,-2.046 -25.223,-0.47c-2.751,0.551 -8.988,2.45 -13.995,5.035c-4.03,2.081 -3.943,2.228 -7.977,4.285c-0.621,0.317 -2.28,1.493 -4.584,2.621c-4.877,2.386 -4.839,2.459 -9.925,4.38c-3.26,1.231 -11.634,4.312 -24.214,1.745c-2.084,-0.425 -2.873,-0.513 -10.164,-3.667c-2.054,-0.889 -7.541,-4.183 -8.309,-4.695c-0.013,-0.009 -8.901,-5.658 -12.471,-7.141c-3.241,-1.346 -10.988,-4.918 -22.483,-3.771c-4.899,0.489 -12.485,2.757 -13.55,3.076c-9.718,2.906 -9.563,3.455 -16.766,4.907c-2.255,0.455 -12.613,3.091 -24.786,0.938c-2.029,-0.359 -8.485,-1.817 -12.438,-3.813c-0.844,-0.426 -5.045,-2.187 -9.51,-6.321c-0.821,-0.76 -9.101,-7.53 -12.991,-21.93c-1.334,-4.938 -3.178,-12.476 -2.727,-23.636c0.268,-6.623 2.475,-17.651 4.454,-23.062c0.713,-1.95 1.507,-5.207 6.508,-14.443c0.124,-0.23 0.157,-0.205 1.701,-2.79c0.101,-0.169 3.867,-5.613 4.91,-6.804c1.172,-1.338 4.735,-5.708 8.486,-8.88c2.049,-1.732 2.105,-1.976 4.338,-3.557c0.197,-0.139 1.679,-1.338 3.953,-2.771c1.216,-0.766 1.721,-1.331 7.866,-4.489c1.614,-0.83 1.661,-0.702 6.048,-2.549c6.103,-2.571 21.751,-6.878 38.867,-4.254c1.699,0.261 1.702,0.148 3.391,0.444c1.322,0.232 10.272,1.801 16.305,3.964c3.084,1.106 4.623,1.286 8.398,2.898c1.348,0.576 4.398,1.569 6.811,2.667c3.897,1.773 3.993,1.511 7.933,3.215c4.807,2.079 12.867,4.432 19.012,5.189c7.932,0.977 8.878,0.774 24.732,-1.375c2.427,-0.329 5.918,-1.221 10.069,-1.518c3.543,-0.254 4.69,-0.712 13.514,-0.39c2.02,0.074 1.761,-0.977 2.445,-3.263c2.746,-9.17 4.081,-11.597 8.101,-19.793c0.645,-1.315 3.43,-5.738 3.674,-6.047c0.41,-0.52 0.445,-0.507 0.441,-0.621c-0.001,-0.019 -0.561,-0.727 -0.579,-0.731c-0.549,-0.128 -5.206,2.442 -5.654,2.444c-0.957,0.004 -0.894,-1.764 -1.646,-1.473c-0.985,0.381 -0.564,1.431 -3.555,4.084c-1.652,1.466 -3.239,2.25 -3.272,2.26c-0.754,0.228 -1.011,-0.351 -1.047,-0.434c-0.134,-0.304 -0.399,-2.333 -1.09,-1.992c-0.642,0.317 -0.363,0.569 -2.307,3.707c-0.863,1.393 -3.763,3.337 -3.938,3.385c-1.165,0.323 -1.232,-0.775 -1.094,-2.827c0.214,-3.183 2.123,-7.941 4.63,-10.509c3.892,-3.986 8.949,-6.135 12.765,-6.296c3.357,-0.142 3.933,0.336 3.894,-0.614c-0.019,-0.449 -0.14,-0.414 -0.575,-0.494c-5.62,-1.029 -8.115,-0.691 -7.679,-2.307c0.106,-0.393 0.359,-0.74 0.443,-1.138c0.25,-1.185 -1.594,-0.781 -1.742,-0.749c-1.357,0.297 -3.937,1.388 -9.539,0.877c-1.013,-0.093 -1.952,-0.318 -1.197,-1.855c0.575,-1.172 0.71,-1.134 0.69,-1.651c-0.032,-0.809 -1.062,-0.649 -1.167,-0.633c-1.794,0.279 -3.873,1.846 -6.172,1.924c-1.509,0.051 -4.625,-0.46 -4.977,-0.818c-1.439,-1.462 4.801,-5.703 7.212,-6.67c5.283,-2.12 8.46,-2.18 11.8,-2.041c1.706,0.071 6.17,1.003 10.771,3.583c0.36,0.202 2.49,1.306 2.707,1.419c0.826,0.861 1.566,1.771 2.349,1.703c0.098,-0.009 0.939,-0.125 -0.164,-1.219c-0.491,-0.487 -0.725,-0.126 -1.18,-0.647c-0.149,-0.171 0.073,-0.505 -0.076,-0.676Z" style="fill:#d02b23;"/><path d="M437.555,233.792c-1.969,5.608 -2.911,6.325 -4.058,8.292c-1.05,1.802 -3.418,4.331 -4.524,5.024c-0.587,0.368 -2.841,2.14 -6.753,1.273c-2.106,-0.467 -3.676,-2.081 -3.932,-2.343c-1.004,-1.032 -3.416,-4.781 -3.062,-8.995c0.032,-0.384 0.108,-0.455 -0.228,-0.643c-0.169,-0.094 -0.31,-0.281 -0.504,-0.29c-0.103,-0.005 -0.102,0.179 -0.167,0.259c-0.794,0.98 -0.509,1.128 -1.16,2.286c-1.15,2.048 -4.958,7.724 -7.913,10.581c-3.262,3.155 -4.415,3.779 -6.691,5.058c-3.265,1.836 -9.036,2.049 -12.216,0.036c-5.18,-3.279 -6.34,-6.642 -7.521,-11.091c-0.597,-2.25 -0.494,-9.747 0.125,-11.845c0.383,-1.299 0.525,-1.304 0.376,-1.636c-0.244,-0.546 -0.41,-0.419 -0.954,-0.165c-0.693,0.324 -0.549,0.587 -2.688,1.461c-4.392,1.795 -5.226,0.538 -5.75,2.012c-0.685,1.927 -0.58,1.949 -1.3,3.868c-1.54,4.107 -2.073,5.138 -2.295,5.566c-1.067,2.061 -3.362,5.455 -3.927,6.08c-0.212,0.235 -2.221,2.457 -2.735,2.853c-8.771,6.749 -16.76,1.469 -18.982,-3.712c-3.276,-7.64 -1.554,-9.095 -2.237,-10.092c-0.098,-0.143 -0.23,-0.298 -0.399,-0.332c-0.088,-0.017 -0.083,0.163 -0.149,0.224c-0.091,0.083 -0.254,0.09 -0.311,0.2c-0.128,0.25 0.172,0.355 -1.297,3.262c-0.285,0.563 -2.979,5.318 -3.065,5.449c-4.982,7.568 -10.181,14.411 -16.653,11.378c-1.89,-0.886 -4.248,-3.856 -5.206,-7.254c-0.708,-2.512 -0.748,-2.495 -1.231,-5.059c-0.107,-0.57 -1.121,-2.927 -0.642,-15.208c0.099,-2.55 1.707,-16.129 2.637,-20.794c0.507,-2.544 0.448,-2.545 1.089,-5.068c1.142,-4.49 1.119,-8.577 6.244,-22.453c2.095,-5.674 5.772,-12.468 8.49,-15.646c1.974,-2.308 6.603,-8.124 13.88,-7.247c8.184,0.986 9.517,12.423 -1.277,31.19c-1.77,3.077 -5.972,9.365 -8.974,12.889c-2.821,3.311 -2.666,3.437 -8.472,9.509c-0.994,1.039 -0.942,1.153 -2.081,8.611c-0.386,2.524 -0.274,2.53 -0.665,5.044c-0.008,0.052 -0.977,8.816 -1.134,11.814c-0.755,14.374 1.757,15.391 4.057,14.554c2.03,-0.738 5.179,-5.597 6.306,-7.174c1.745,-2.442 1.433,-2.622 3.68,-6.338c0.314,-0.519 3.702,-6.944 4.491,-8.965c1.525,-3.905 1.876,-3.762 3.103,-7.755c0.602,-1.959 2.206,-4.833 2.431,-5.236c0.175,-0.313 1.505,-2.696 2.646,-3.614c2.058,-1.653 3.993,-1.486 4.359,-1.455c0.017,0.001 1.582,0.444 2.009,-0.526c0.362,-0.822 1.254,-4.416 4.158,-6.086c1.329,-0.764 1.981,-1.281 4.504,-1.648c2.117,-0.307 6.635,0.38 9.1,5.53c0.204,0.426 1.046,2.187 1.64,5.671c0.188,1.105 0.449,6.022 -0.316,11.207c-0.058,0.396 -0.148,0.786 -0.214,1.18c-0.419,2.508 2.815,0.833 4.439,0.059c2.818,-1.344 4.805,-3.469 5.344,-4.686c0.18,-0.406 0.554,-1.643 2.111,-4.854c1.675,-3.453 1.535,-3.54 4.149,-6.953c6.146,-8.024 15.274,-9.274 19.371,-4.457c2.625,3.086 2.226,10.236 -0.669,10.732c-0.564,0.097 -3.012,0.125 -2.182,-2.761c0.186,-0.648 1.249,-2.837 0.001,-5.118c-1.03,-1.881 -4.105,-0.963 -6.215,2.308c-0.991,1.537 -2.012,2.32 -4.094,7.804c-0.346,0.911 -1.835,4.409 -2.883,9.556c-1.428,7.015 -2.83,17.519 2.374,20.963c1.941,1.285 5.372,0.723 8.931,-2.523c0.755,-0.688 3.48,-3.174 7.904,-10.03c0.321,-0.497 0.465,-0.92 1.929,-3.23c0.28,-0.442 0.236,-0.463 3.049,-5.795c2.511,-4.759 3.576,-12.084 9.285,-18.358c2.732,-3.002 5.006,-3.825 5.519,-4.011c3.463,-1.254 6.256,-2.162 10.51,0.241c0.253,0.143 1.29,0.95 1.79,1.502c0.264,0.292 0.238,0.366 0.63,0.388c0.7,0.038 0.514,-0.283 0.736,-0.94c0.166,-0.489 1.227,-3.627 5.436,-3.486c1.152,0.039 5.37,0.844 4.848,4.498c-0.719,5.039 -2.686,10.954 -3.707,17.452c-0.318,2.022 -3.553,16.421 -2.137,21.882c0.051,0.196 0.528,2.035 2.048,1.484c2.075,-0.753 4.354,-4.517 8.309,-11.119c0.293,-0.49 1.847,-3.886 3.246,-6.511c0.925,-1.734 1.197,-2.785 2.467,-5.228c1.937,-3.726 0.937,-4.002 2.02,-10.59c0.465,-2.826 0.381,-2.832 0.933,-5.649c0.719,-3.671 1.697,-10.288 5.269,-21.849c0.356,-1.153 2.344,-7.587 5.627,-13.991c0.732,-1.428 2.428,-4.216 2.647,-4.577c1.487,-2.445 4.231,-5.615 6.176,-7.243c5.936,-4.968 13.606,-4.426 15.607,0.459c1.503,3.668 0.804,7.288 0.406,10.066c-0.191,1.329 -1.487,7.299 -6.615,16.294c-0.883,1.548 -3.873,6.312 -4.569,7.248c-2.756,3.706 -2.646,3.781 -5.575,7.332c-2.539,3.079 -2.444,3.146 -5.199,6.046c-3.433,3.614 -3.666,3.576 -3.853,5.247c-0.36,3.232 -1.279,8.414 -1.797,13.478c-0.289,2.819 -0.366,2.801 -0.569,5.633c-0.13,1.808 -1.108,7.388 -0.033,14.589c1.263,8.46 6.441,1.711 7.244,0.776c1.78,-2.072 5.27,-7.828 7.461,-12.1c0.476,-0.928 4.687,-9.137 6.039,-11.553c9.002,-16.085 29.758,-9.341 34.044,-8.419c6.2,1.335 17.281,5.19 25.908,3.936c10.549,-1.533 11.367,-9.554 11.569,-10.316c1.046,-3.961 6.196,-1.651 4.084,3.967c-0.531,1.411 -1.557,2.584 -2.184,3.4c-0.595,0.774 -3.042,2.667 -3.32,2.883c-4.016,3.107 -12.752,4.278 -18.06,3.433c-2.24,-0.357 -2.245,-0.283 -4.458,-0.785c-0.399,-0.09 -4.527,-0.728 -10.634,-2.412c-2.569,-0.708 -2.552,-0.744 -5.133,-1.392c-6.646,-1.668 -11.874,-1.625 -12.915,-1.616c-10.243,0.086 -14.269,6.195 -15.003,7.31c-2.379,3.61 -3.735,7.26 -5.042,9.54c-1.159,2.024 -0.945,2.132 -3.461,6.698c-2.565,4.655 -2.689,4.573 -5.681,8.963c-0.182,0.267 -0.432,0.635 -2.514,3.156c-0.785,0.951 -3.248,3.136 -4.791,3.669c-11.156,3.854 -12.685,-13.217 -13.088,-16.393c-0.333,-2.63 -0.176,-4.652 -0.144,-5.055c0.053,-0.683 0.243,-0.707 -0.046,-1.323c-0.036,-0.076 -0.385,-0.821 -0.692,-0.789c-0.066,0.007 0.076,0.082 -0.258,0.788c-0.999,2.114 -0.802,2.198 -1.961,4.202c-0.986,1.704 -1.955,3.929 -4.216,7.132c-0.97,1.373 -0.895,1.556 -2.886,3.849c-0.286,0.329 -2.087,2.881 -5.449,3.989c-3.649,1.203 -8.477,-1.565 -9.871,-8.346c-1.689,-8.22 0.054,-11.817 -0.417,-12.212c-0.024,-0.02 -0.011,0.085 -0.379,0.099c-0.208,0.008 -0.191,-0.077 -0.406,-0.069Zm-78.491,-13c1.387,4.064 2.919,5.856 5.77,7.418c2.406,1.319 2.373,-0.167 2.562,-1.268c0.184,-1.07 2.138,-9.382 -0.426,-15.705c-1.504,-3.711 -5.4,-3.643 -7.192,-0.119c-2.005,3.942 -1.179,7.752 -0.714,9.673Zm-16.358,-43.244c1.12,-2.772 0.958,-2.817 1.589,-5.683c0.883,-4.01 0.302,-7.919 -1.793,-8.636c-4.219,-1.446 -7.898,6.228 -8.273,7.011c-3.45,7.198 -2.948,7.392 -4.774,12.242c-0.547,1.454 -3.474,12.197 -4.199,15.805c-1.15,5.732 -1.889,8.371 -1.889,8.379c-0.053,0.962 0.627,0.884 1.128,0.063c0.051,-0.084 0.466,-0.764 0.654,-1.035c0.29,-0.419 3.98,-4.951 4.279,-5.284c1.774,-1.974 4.226,-5.699 4.763,-6.558c2.675,-4.274 3.152,-5.152 3.403,-5.614c3.656,-6.734 3.756,-7.151 5.112,-10.689Zm6.235,54.949c-0.629,6.96 -0.785,10.417 1.929,14.64c1.052,1.637 3.966,3.18 7.662,-0.233c0.308,-0.284 2.899,-2.362 5.617,-8.858c0.164,-0.392 1.759,-4.204 1.876,-4.964c0.221,-1.429 -1.156,-0.998 -3.958,-2.144c-0.596,-0.244 -3.97,-1.624 -6.485,-4.77c-1.411,-1.766 -2.193,-4.024 -2.323,-4.4c-0.23,-0.666 -0.006,-0.977 -0.709,-1.008c-0.709,-0.031 -0.552,0.269 -0.79,0.944c-1.582,4.491 -1.441,4.523 -2.596,9.13c-0.206,0.823 -0.139,0.827 -0.223,1.663Zm92.079,-15.656c0.635,-2.23 1.689,-4.181 -1.463,-6.655c-0.179,-0.14 -1.268,-0.995 -2.709,-0.866c-2.902,0.26 -4.556,3.218 -4.679,3.378c-1.876,2.45 -1.614,2.602 -2.784,5.138c-2.251,4.882 -2.134,5.541 -3.359,10.713c-0.728,3.074 -0.605,3.089 -1.063,6.21c-0.482,3.283 0.207,6.531 1.061,7.461c2.188,2.381 4.812,-2.314 5.937,-3.976c0.593,-0.876 3.173,-6.033 3.275,-6.256c4.341,-9.589 5.459,-13.892 5.785,-15.148Zm56.145,-38.766c0.675,-1.699 0.679,-1.685 0.729,-1.834c3.948,-11.763 -0.101,-15.026 -4.303,-12.336c-4.291,2.746 -8.078,14.385 -8.521,15.747c-2.691,8.273 -2.65,8.278 -3.092,10.197c-0.978,4.249 -1.824,6.263 -2.929,12.333c-0.788,4.324 -1.461,4.377 -0.991,4.931c0.435,0.513 0.971,-0.286 1.02,-0.357c0.633,-0.941 0.608,-0.945 0.663,-1.026c1.079,-1.601 11.254,-12.13 17.425,-27.655Z" style="fill:#5c5e58;"/><path d="M102.423,287.416c-6.05,0.955 -11.462,1.468 -19.08,1.605c-0.563,0.01 -5.933,-0.292 -9.502,-1.084c-0.981,-0.218 -7.157,-1.589 -11.764,-4.404c-1.864,-1.139 -2.142,-0.979 -2.146,-1.567c-0.006,-0.789 1.362,-0.422 1.48,-0.391c1.044,0.28 4.147,1.113 13.496,0.753c8.725,-0.336 13.212,-2.154 18.585,-3.595c5.679,-1.524 5.502,-2.072 11.169,-3.632c1.797,-0.495 6.211,-2.321 15.23,-3.004c0.743,-0.056 6.783,-0.26 12.298,1.089c0.692,0.169 7.31,1.947 11.154,4.004c3.806,2.037 3.89,1.87 6.201,3.302c4.605,2.854 8.751,5.249 9.519,5.693c0.885,0.511 0.851,0.551 1.739,1.046c4.277,2.382 10.806,4.714 15.298,5.226c9.12,1.039 15.506,-1.2 16.779,-1.646c4.964,-1.74 6.083,-2.244 13.978,-6.267c0.342,-0.174 0.306,-0.237 4.17,-2.38c0.456,-0.253 10.049,-5.019 11.264,-5.544c1.64,-0.707 8.371,-2.814 10.518,-3.23c3.146,-0.609 7.739,-1.661 16.923,-0.58c3.613,0.425 10.555,2.949 13.4,4.226c1.395,0.626 1.42,0.578 1.5,0.683c0.013,0.018 0.241,0.742 -0.317,0.885c-0.61,0.155 -0.615,-0.286 -7.866,-0.022c-7.784,0.284 -9.136,0.145 -19.665,3.419c-0.519,0.161 -1.649,0.513 -6.237,2.689c-0.544,0.258 -1.552,0.736 -6.535,3.741c-0.092,0.056 -0.09,0.057 -5.69,3.8c-7.081,4.733 -6.974,4.898 -10.174,6.678c-3.081,1.713 -2.981,1.874 -6.175,3.396c-4.571,2.178 -4.602,2.34 -11.218,4.094c-3.538,0.938 -6.533,1.747 -15.781,1.207c-4.333,-0.253 -13.089,-2.645 -17.362,-4.983c-1.955,-1.07 -2.211,-0.743 -6.174,-3.36c-0.932,-0.616 -1.759,-0.907 -4.472,-2.842c-0.26,-0.185 -7.131,-4.707 -9.638,-6.055c-14.125,-7.595 -26.914,-4.206 -34.903,-2.947Z" style="fill:#cd2c22;"/><path d="M203.966,252.781c-0.114,-1.076 -0.633,-5.975 -0.684,-13.514c-0.151,-22.299 -0.191,-29.066 0.571,-35.941c0.583,-5.261 3.384,-8.478 5.94,-7.864c2.364,0.568 3.409,3.862 3.418,3.883c0.877,2.079 2.215,0.107 2.818,-0.502c2.709,-2.735 7.667,-3.17 9.517,-2.916c5.953,0.818 7.555,3.722 8.879,5.749c1.472,2.252 3.088,8.717 3.257,11.196c0.068,1.003 0.521,6.443 -0.4,10.084c-0.49,1.935 -1.157,6.008 -2.929,8.899c-2.079,3.391 -2.196,3.309 -2.509,3.61c-1.497,1.438 -5.787,5.57 -13.045,2.665c-2.392,-0.957 -2.168,-1.351 -2.384,-1.403c-0.207,-0.049 -0.954,0.178 -1.026,0.276c-0.075,0.102 -0.026,1.254 -0.042,2.262c-0.214,13.411 -1.323,16.316 -2.712,18.567c-0.699,1.132 -3.064,2.688 -5.72,1.231c-2.282,-1.251 -2.875,-5.732 -2.948,-6.283Zm11.029,-34.321c-0.133,-2.308 -0.237,-4.706 1.597,-7.823c1.237,-2.102 5.717,-4.055 8.258,-1.58c2.51,2.445 3.156,10.557 0.12,15.597c-1.518,2.52 -5.386,1.769 -6.262,1.297c-3.351,-1.809 -3.304,-4.663 -3.712,-7.489Z" style="fill:#fbfbf9;"/><path d="M53.283,199.357c0.138,-8.302 0.36,-8.286 0.606,-12.377c0.349,-5.833 1.376,-7.171 2.176,-8.205c1.984,-2.563 15.039,-6.386 15.426,-6.526c3.668,-1.332 18.146,-5.174 19.022,1.277c0.383,2.82 -1.483,5.243 -2.086,6.186c-1.11,1.734 -5.202,4.862 -8.405,6.281c-9.76,4.327 -11.022,3.391 -11.35,5.495c-0.003,0.021 -0.471,6.728 -0.512,7.313c-0.261,3.74 3.215,-1.436 14.063,-2.19c5.336,-0.371 6.949,3.088 6.243,6.141c-0.605,2.613 -2.055,3.905 -2.465,4.339c-1.504,1.589 -1.539,1.548 -3.308,2.827c-4.624,3.341 -11.064,4.452 -12.9,4.996c-1.613,0.478 -1.278,1.351 -1.422,5.253c-0.471,12.805 -1.119,14.704 -2.563,17.352c-2.241,4.111 -6.164,4.21 -8.74,-0.022c-4.055,-6.663 -4.123,-29.279 -3.785,-38.141Z" style="fill:#fcfcf9;"/><path d="M127.761,194.552c1.997,-0.079 4.712,-0.452 8.511,1.833c0.359,0.216 2.468,1.485 3.887,3.505c2.894,4.12 3.485,7.093 3.724,7.949c0.325,1.167 2.179,7.82 0.733,15.131c-1.499,7.58 -3.036,9.023 -3.897,10.703c-2.008,3.92 -5.769,5.877 -7.441,6.491c-3.284,1.207 -7.494,0.47 -8.327,0.167c-6.159,-2.241 -7.871,-6.558 -8.901,-8.437c-3.464,-6.313 -3.625,-14.962 -2.409,-20.742c0.986,-4.688 1.832,-6.057 3.155,-8.552c3.819,-7.201 9.367,-7.787 10.965,-8.05Zm-2.023,14.482c-0.381,0.979 -3.021,6.39 -0.604,15.567c0.298,1.131 1.377,3.79 2.592,4.576c5.233,3.386 7.295,-9.231 5.922,-16.269c-1.021,-5.233 -2.724,-6.263 -3.224,-6.567c-1.95,-1.18 -3.517,0.722 -3.712,0.959c-0.101,0.123 -0.263,0.32 -0.974,1.733Z" style="fill:#fbfbf9;"/><path d="M273.578,210.556c1.218,6.574 2.625,24.635 -0.872,28.678c-2.75,3.18 -7.901,0.838 -8.569,-2.15c-0.254,-1.135 -0.224,-1.139 -0.318,-1.251c-0.558,-0.668 -0.663,-0.038 -2.755,1.376c-0.351,0.237 -5.602,3.55 -11.413,1.652c-7.613,-2.487 -8.801,-10.863 -7.385,-14.816c3.28,-9.155 15.359,-11.917 18.692,-12.12c0.121,-0.007 1.177,-0.072 1.462,-0.402c0.43,-0.497 0.062,-4.25 -1.625,-5.814c-1.05,-0.973 -3.869,-2.254 -7.828,0.229c-0.085,0.053 -0.091,0.04 -1.073,0.65c-2.554,1.587 -4.15,3.13 -6.732,1.857c-1.427,-0.704 -2.638,-2.9 -1.937,-5.056c0.992,-3.052 4.065,-5.939 6.598,-7.149c2.907,-1.389 5.021,-1.599 5.476,-1.644c5.142,-0.511 7.516,0.092 11.103,2.189c0.901,0.527 4.318,3.364 5.853,8.179c0.953,2.991 1.257,5.137 1.322,5.593Zm-19.792,15.24c0.005,0.12 -0.282,1.546 1.138,2.552c2.182,1.546 7.466,-1.902 7.897,-2.433c0.206,-0.253 0.493,-0.606 0.283,-4.064c-0.115,-1.892 -0.754,-2.365 -3.887,-1.247c-1.705,0.609 -4.729,2.561 -5.28,4.539c-0.06,0.215 -0.091,0.437 -0.151,0.652Z" style="fill:#fbfbf8;"/><path d="M162.207,226.344c-0.071,4.458 -0.159,5.255 -0.903,8.385c-0.338,1.421 -1.11,4.752 -4.348,5.603c-1.846,0.485 -4.213,-0.986 -5.173,-3.828c-1.861,-5.509 -0.728,-7.242 -1.585,-25.899c-0.265,-5.769 0.108,-9.326 1.746,-12.347c1.121,-2.069 4.952,-4.229 7.536,-0.775c1.762,2.356 0.96,5.248 1.972,5.319c0.48,0.034 0.474,-0.049 0.741,-0.437c0.326,-0.474 2.745,-6.183 10.511,-5.755c5.957,0.328 10.097,6.636 7.364,11.222c-0.175,0.294 -2.279,2.908 -6.708,1.404c-2.128,-0.723 -4.897,-2.99 -8.368,2.034c-2.925,4.234 -2.676,9.087 -2.784,15.075Z" style="fill:#fbfbf9;"/><path d="M105.873,184.169c1.77,6.169 0.949,8.313 0.659,15.765c-0.143,3.672 -0.565,6.399 -0.071,15.725c0.224,4.222 0.13,4.22 0.433,8.437c0.79,10.993 -0.97,13.637 -1.622,14.616c-1.278,1.92 -6.805,4.421 -9.362,-5.117c-2.279,-8.503 -3.168,-28.27 -0.587,-41.501c0.236,-1.21 2.024,-9.089 5.474,-10.65c3.682,-1.666 4.995,2.548 5.077,2.725Z" style="fill:#fbfbf8;"/><path d="M183.817,220.722c0.019,-9.441 0.204,-18.207 2.938,-23.045c0.875,-1.547 2.876,-2.385 3.933,-2.407c1.832,-0.039 3.295,1.766 3.731,2.526c0.76,1.325 2.279,3.972 1.978,18.992c-0.336,16.816 -1.269,18.146 -3.147,20.548c-1.049,1.342 -4.782,3.435 -6.969,-0.368c-0.755,-1.312 -1.694,-4.472 -1.9,-6.681c-0.503,-5.388 -0.553,-8.8 -0.564,-9.566Z" style="fill:#fbfbf9;"/><path d="M193.017,188.838c-0.303,0.142 -1.391,0.972 -3.439,0.825c-4.831,-0.348 -5.71,-5.996 -0.506,-8.114c3.739,-1.522 9.34,1.71 5.241,6.23c-0.667,0.736 -0.722,0.666 -1.296,1.059Z" style="fill:#fafaf7;"/><path d="M235.999,107.043c0.149,0.171 -0.073,0.505 0.076,0.676c0.455,0.521 0.689,0.161 1.18,0.647c1.103,1.094 0.262,1.211 0.164,1.219c-0.784,0.068 -1.523,-0.843 -2.349,-1.703c0.31,-0.28 0.619,-0.56 0.929,-0.84Z" style="fill:#d97e76;"/><path d="M257.922,116.037l0.095,0.924c-0.124,0.029 -0.286,0.207 -0.979,0.226c-0.076,0.002 -0.806,0.022 -0.937,-0.142c-0.062,-0.078 0.142,-0.086 0.047,-0.319c-0.052,-0.128 -0.185,-0.274 -0.12,-0.396c0.112,-0.209 1.741,-0.286 1.894,-0.294Z" style="fill:#e16459;"/></svg>