<?xml version="1.0" encoding="UTF-8" standalone="no"?><!DOCTYPE svg PUBLIC "-//W3C//DTD SVG 1.1//EN" "http://www.w3.org/Graphics/SVG/1.1/DTD/svg11.dtd"><svg width="100%" height="100%" viewBox="0 0 1191 842" version="1.1" xmlns="http://www.w3.org/2000/svg" xmlns:xlink="http://www.w3.org/1999/xlink" xml:space="preserve" xmlns:serif="http://www.serif.com/" style="fill-rule:evenodd;clip-rule:evenodd;stroke-linejoin:round;stroke-miterlimit:2;"><g><path d="M676.438,461.222c-31.926,185.374 -417.401,254.044 -564.468,110.754c-81.219,-79.133 -113.644,-258.313 -3.885,-330.742c107.8,-71.137 259.553,-23.943 396.786,28.432c28.446,10.857 176.09,59.416 172.847,176.83c-0.033,1.182 -0.095,1.091 -1.28,14.726Z" style="fill:#66a923;"/><path d="M1017.455,450.209c0.234,-4.815 -1.797,-20.567 8.211,-24.675c25.335,-10.401 12.23,38.623 18.28,54.505c7.516,19.732 17.629,-6.445 18.201,-7.927c6.318,-16.356 -4.435,-74.388 16.385,-116.145c19.967,-40.047 65.293,-26.948 49.74,33.085c-11.856,45.763 -26.091,60.555 -32.956,70.929c-8.448,12.767 11.8,49.663 31.877,32.096c5.931,-5.19 16.793,-31.01 19.093,-17.729c3.193,18.441 -29.384,62.169 -62.199,36.29c-14.459,-11.403 -11.64,-32.176 -18.227,-18.323c-8.414,17.695 -30.518,22.436 -40.923,7.355c-3.284,-4.76 -1.885,-5.286 -4.921,-10.221c-0.319,-0.518 -1.353,-1.572 -6.035,4.631c-21.979,29.117 -50.179,2.107 -50.46,-29.07c-0.49,-54.378 54.148,-67.085 60.489,-61.146c6.613,6.194 -11.359,13.731 -14.164,15.692c-15.511,10.847 -21.92,37.189 -17.556,54.801c4.161,16.791 23.002,6.868 25.165,-24.148Zm73.721,-15.118c3.223,-0.265 3.133,-0.925 6.431,-7.538c30.679,-61.501 15.176,-81.003 8.549,-76.74c-16.639,10.706 -14.907,79.512 -14.981,84.277Z" style="fill:#515852;"/><path d="M814.306,507.702c0.134,2.635 0.762,14.978 -27.793,17.745c-23.502,2.277 -51.825,-16.503 -55.844,-14.577c-0.101,0.048 -15.06,18.997 -33.02,14.892c-25.204,-5.761 -29.596,-45.758 12.875,-45.222c12.285,0.155 9.659,-4.992 9.819,-17.343c0.077,-5.946 1.411,-9.525 -4.267,-7.576c-1.242,0.426 -15.75,8.389 -21.063,2.583c-10.042,-10.972 24.982,-12.411 26.253,-34.029c1.207,-20.528 -5.241,-104.512 37.699,-89.522c20.088,7.012 32.815,50.805 -1.009,94.462c-13.418,17.318 -4.317,25.79 -11.722,49.035c-1.936,6.079 -4.255,7.779 1.631,10.432c31.844,14.356 31.615,15.686 66.441,19.119Zm-54.838,-118.481c0.57,-2.16 4.601,-17.429 0.646,-27.912c-11.107,-29.432 -14.565,43.632 -12.184,45.991c1.219,1.208 2.935,0.989 11.538,-18.079Zm-60.103,120.663c12.43,-1.034 17.164,-11.804 5.564,-12.655c-11.892,-0.873 -14.589,9.187 -5.564,12.655Z" style="fill:#525952;"/><path d="M272.749,347.718c1.361,0.141 42.69,-4.418 45.052,61.622c1.561,43.643 -16.321,67.157 -30.142,70.745c-57.128,14.83 -66.831,-50.682 -56.859,-90.93c10.693,-43.159 40.73,-41.292 41.95,-41.436Z" style="fill:#fcfdf7;"/><path d="M327.621,440.906c0.128,-41.141 -3.466,-48.681 17.454,-52.092c9.087,-1.481 30.557,-1.984 43.919,6.583c13.816,8.858 15.073,33.053 13.135,43.561c-3.879,21.037 -13.785,24.569 -14.567,25.909c-2.782,4.768 16.117,39.868 17.241,48.352c1.034,7.803 -21.076,12.036 -22.608,12.016c-3.575,-0.046 -6.047,-0.078 -19.683,-40.119c-8.132,-23.879 -5.121,20.5 -6.788,33.624c-0.246,1.937 -1.486,11.696 -23.437,6.824c-9.633,-2.138 -5.228,-24.409 -4.666,-84.659Z" style="fill:#fbfdf6;"/><path d="M628.083,467.003c4.866,25.93 5.307,29.173 -2.975,30.871c-20.989,4.305 -23.321,1.5 -26.274,-10.475c-3.104,-12.586 -0.345,-21.966 -18.222,-19.09c-16.064,2.585 -1.393,33.784 -24.041,32.094c-15.952,-1.191 -24.912,-2.318 -21.534,-14.83c8.573,-31.756 8.927,-31.537 17.346,-63.349c13.532,-51.133 13.087,-52.798 20.79,-55.742c8.683,-3.319 31.244,-8.603 34.205,-0.037c0.038,0.11 17.209,83.693 18.705,90.971c0.158,0.767 0.148,0.71 2.001,9.586Z" style="fill:#fcfdf7;"/><path d="M461.303,398.066c1.265,-3.015 5.553,-13.23 39.705,-9.669c28.144,2.934 32.808,23.134 33.577,26.467c13.676,59.235 -39.269,64.981 -40.904,65.484c-6.211,1.91 -2.97,18.783 -4.013,36.608c-0.906,15.49 -27.422,9.632 -29.942,3.909c-1.901,-4.317 0.98,-115.654 1.578,-122.799Z" style="fill:#fbfdf6;"/><path d="M783.596,466.744c-0.318,-3.251 -2.532,-25.853 7.381,-40.162c14.953,-21.586 27.988,-16.404 45.556,-23.182c14.203,-5.479 29.23,18.367 31.822,28.198c16.989,64.445 -35.02,79.943 -50.203,74.167c-20.943,-7.967 -28.387,-11.104 -34.555,-39.021Zm45.655,-43.547c-8.332,1.308 -10.827,1.713 -15.088,15.778c-3.007,9.924 -0.956,31.382 0.012,35.383c14.894,61.59 48.581,-44.485 15.076,-51.162Z" style="fill:#525852;"/><path d="M115.091,490.206c-13.694,-1.606 -11.496,-6.95 -11.744,-40.01c-0.661,-87.87 -1.019,-89.18 4.865,-93.861c3.345,-2.661 3.712,-2.274 53.218,-4.813c13.828,-0.709 11.637,5.095 11.485,18.89c-0.178,16.128 -15.094,11.917 -28.192,12.336c-11.675,0.374 -9.659,8.846 -9.641,17.356c0.043,20.107 27.414,-1.463 28.399,18.532c1.051,21.324 -7.164,18.408 -24.404,19.746c-6.194,0.481 -3.459,20.629 -2.953,34.037c0.804,21.297 -7.783,17.345 -21.034,17.788Z" style="fill:#fcfdf7;"/><path d="M196.695,519.449c-9.724,-0.516 -18.932,1.62 -19.225,-13.592c-0.16,-8.311 0.118,-8.227 -0.005,-103.907c-0.017,-12.991 -1.444,-20.649 21.114,-18.83c13.125,1.058 11.53,7.02 9.23,65.208c-1.503,38.027 0.386,38.945 3.499,39.595c9.765,2.038 35.927,-6.228 35.547,6.781c-0.228,7.81 0.166,20.012 -5.582,22.4c-3.849,1.599 -41.008,2.28 -44.578,2.345Z" style="fill:#fbfdf6;"/><path d="M910.108,457.602c0.184,2.637 1.757,25.177 13.621,30.105c21.391,8.884 36.368,-22.391 37.453,-7.856c2.443,32.724 -79.858,55.204 -82.655,-16.648c-3.157,-81.101 74.344,-67.974 70.203,-46.252c-1.787,9.372 -24.967,-13.588 -36.324,20.131c-1.729,5.134 -2.237,18.869 -2.298,20.52Z" style="fill:#525852;"/><path d="M414.763,437.208c0.513,-70.142 -0.609,-70.115 0.073,-76.171c1.6,-14.212 27.851,-7.671 28.521,-7.23c5.664,3.734 2.403,57.315 1.27,105.634c-0.401,17.116 5.508,28.251 -16.04,28.468c-18.045,0.182 -14.769,-11.037 -13.823,-50.701Z" style="fill:#fbfdf6;"/><path d="M272.751,451.606c-29.196,-6.504 -13.404,-89.628 6.966,-71.392c9.241,8.272 17.31,66.572 -6.966,71.392Z" style="fill:#64a825;"/><path d="M495.247,451.379c-8.692,0.373 -6.444,-6.074 -6.174,-29.055c0.234,-19.883 29.828,-1.765 16.637,21.862c-2.458,4.402 -9.504,6.859 -10.464,7.194Z" style="fill:#67aa2a;"/><path d="M356.516,426.07c1.145,-9.155 0.593,-9.463 2.033,-10.485c13.701,-9.725 26.076,28.196 6.673,33.759c-12.327,3.534 -8.985,-9.012 -8.706,-23.274Z" style="fill:#66a928;"/><path d="M581.14,431.715c0.293,-1.598 3.606,-19.647 3.897,-19.934c3.2,-3.159 4.182,8.572 5.944,21.835c0.149,1.12 2.159,16.253 -9.802,10.168c-2.186,-1.112 -0.224,-11.121 -0.039,-12.069Z" style="fill:#6aa433;"/></g></svg>