<?xml version="1.0" encoding="UTF-8"?>
<svg id="Camada_1" xmlns="http://www.w3.org/2000/svg" version="1.1" xmlns:serif="http://www.serif.com/" viewBox="0 0 1920 1080">
  <!-- Generator: Adobe Illustrator 30.0.0, SVG Export Plug-In . SVG Version: 2.1.1 Build 123)  -->
  <defs>
    <style>
      .st0 {
        fill: #fff;
      }

      .st0, .st1, .st2, .st3, .st4, .st5, .st6, .st7 {
        fill-rule: evenodd;
      }

      .st1 {
        fill: #66a928;
      }

      .st2 {
        fill: #66a923;
      }

      .st3 {
        fill: #fbfdf6;
      }

      .st4 {
        fill: #67aa2a;
      }

      .st5 {
        fill: #fcfdf7;
      }

      .st6 {
        fill: #64a825;
      }

      .st7 {
        fill: #6aa433;
      }
    </style>
  </defs>
  <path class="st2" d="M1063.8,591.6c-41,237.8-535.4,325.9-724,142.1-104.2-101.5-145.8-331.3-5-424.2,138.3-91.2,332.9-30.7,508.9,36.5,36.5,13.9,225.9,76.2,221.7,226.8,0,1.5-.1,1.4-1.6,18.9h0Z"/>
  <path class="st0" d="M1501.2,577.5c.3-6.2-2.3-26.4,10.5-31.6,32.5-13.3,15.7,49.5,23.4,69.9,9.6,25.3,22.6-8.3,23.3-10.2,8.1-21-5.7-95.4,21-149,25.6-51.4,83.7-34.6,63.8,42.4-15.2,58.7-33.5,77.7-42.3,91-10.8,16.4,15.1,63.7,40.9,41.2,7.6-6.7,21.5-39.8,24.5-22.7,4.1,23.7-37.7,79.7-79.8,46.5-18.5-14.6-14.9-41.3-23.4-23.5-10.8,22.7-39.1,28.8-52.5,9.4-4.2-6.1-2.4-6.8-6.3-13.1-.4-.7-1.7-2-7.7,5.9-28.2,37.3-64.4,2.7-64.7-37.3-.6-69.7,69.5-86,77.6-78.4,8.5,7.9-14.6,17.6-18.2,20.1-19.9,13.9-28.1,47.7-22.5,70.3,5.3,21.5,29.5,8.8,32.3-31ZM1595.8,558.1c4.1-.3,4-1.2,8.2-9.7,39.4-78.9,19.5-103.9,11-98.4-21.3,13.7-19.1,102-19.2,108.1h0Z"/>
  <path class="st0" d="M1240.7,651.2c.2,3.4,1,19.2-35.6,22.8-30.1,2.9-66.5-21.2-71.6-18.7-.1,0-19.3,24.4-42.4,19.1-32.3-7.4-38-58.7,16.5-58,15.8.2,12.4-6.4,12.6-22.2,0-7.6,1.8-12.2-5.5-9.7-1.6.5-20.2,10.8-27,3.3-12.9-14.1,32-15.9,33.7-43.6,1.5-26.3-6.7-134.1,48.4-114.8,25.8,9,42.1,65.2-1.3,121.2-17.2,22.2-5.5,33.1-15,62.9-2.5,7.8-5.5,10,2.1,13.4,40.8,18.4,40.6,20.1,85.2,24.5h0ZM1170.3,499.2c.7-2.8,5.9-22.4.8-35.8-14.2-37.8-18.7,56-15.6,59,1.6,1.5,3.8,1.3,14.8-23.2ZM1093.2,654c15.9-1.3,22-15.1,7.1-16.2-15.3-1.1-18.7,11.8-7.1,16.2Z"/>
  <path class="st5" d="M546,446c1.7.2,54.8-5.7,57.8,79,2,56-20.9,86.1-38.7,90.7-73.3,19-85.7-65-72.9-116.6,13.7-55.4,52.2-53,53.8-53.1h0Z"/>
  <path class="st3" d="M616.4,565.5c.2-52.8-4.4-62.4,22.4-66.8,11.7-1.9,39.2-2.5,56.3,8.4,17.7,11.4,19.3,42.4,16.8,55.9-5,27-17.7,31.5-18.7,33.2-3.6,6.1,20.7,51.1,22.1,62,1.3,10-27,15.4-29,15.4-4.6,0-7.8-.1-25.2-51.5-10.4-30.6-6.6,26.3-8.7,43.1-.3,2.5-1.9,15-30.1,8.8-12.4-2.7-6.7-31.3-6-108.6h0Z"/>
  <path class="st5" d="M1001.8,599c6.2,33.3,6.8,37.4-3.8,39.6-26.9,5.5-29.9,1.9-33.7-13.4-4-16.1-.4-28.2-23.4-24.5-20.6,3.3-1.8,43.3-30.8,41.2-20.5-1.5-32-3-27.6-19,11-40.7,11.5-40.5,22.2-81.3,17.4-65.6,16.8-67.7,26.7-71.5,11.1-4.3,40.1-11,43.9,0,0,.1,22.1,107.3,24,116.7.2,1,.2.9,2.6,12.3h0Z"/>
  <path class="st3" d="M787.9,510.6c1.6-3.9,7.1-17,50.9-12.4,36.1,3.8,42.1,29.7,43.1,33.9,17.5,76-50.4,83.3-52.5,84-8,2.4-3.8,24.1-5.1,47-1.2,19.9-35.2,12.4-38.4,5-2.4-5.5,1.3-148.3,2-157.5h0Z"/>
  <path class="st0" d="M1201.3,598.7c-.4-4.2-3.2-33.2,9.5-51.5,19.2-27.7,35.9-21,58.4-29.7,18.2-7,37.5,23.6,40.8,36.2,21.8,82.7-44.9,102.5-64.4,95.1-26.9-10.2-36.4-14.2-44.3-50.1h0ZM1259.8,542.8c-10.7,1.7-13.9,2.2-19.4,20.2-3.9,12.7-1.2,40.3,0,45.4,19.1,79,62.3-57.1,19.3-65.6h0Z"/>
  <path class="st5" d="M343.8,628.8c-17.6-2.1-14.7-8.9-15.1-51.3-.8-112.7-1.3-114.4,6.2-120.4,4.3-3.4,4.8-2.9,68.3-6.2,17.7-.9,14.9,6.5,14.7,24.2-.2,20.7-19.4,15.3-36.2,15.8-15,.5-12.4,11.3-12.4,22.3,0,25.8,35.2-1.9,36.4,23.8,1.3,27.4-9.2,23.6-31.3,25.3-7.9.6-4.4,26.5-3.8,43.7,1,27.3-10,22.2-27,22.8h0Z"/>
  <path class="st3" d="M448.5,666.3c-12.5-.7-24.3,2.1-24.7-17.4-.2-10.7.2-10.6,0-133.3,0-16.7-1.9-26.5,27.1-24.2,16.8,1.4,14.8,9,11.8,83.6-1.9,48.8.5,50,4.5,50.8,12.5,2.6,46.1-8,45.6,8.7-.3,10,.2,25.7-7.2,28.7-4.9,2.1-52.6,2.9-57.2,3h0Z"/>
  <path class="st0" d="M1363.5,586.9c.2,3.4,2.3,32.3,17.5,38.6,27.4,11.4,46.6-28.7,48-10.1,3.1,42-102.4,70.8-106-21.4-4-104,95.4-87.2,90-59.3-2.3,12-32-17.4-46.6,25.8-2.2,6.6-2.9,24.2-2.9,26.3h0Z"/>
  <path class="st3" d="M728.2,560.8c.7-90-.8-89.9,0-97.7,2.1-18.2,35.7-9.8,36.6-9.3,7.3,4.8,3.1,73.5,1.6,135.5-.5,22,7.1,36.2-20.6,36.5-23.1.2-18.9-14.2-17.7-65h0Z"/>
  <path class="st6" d="M546,579.3c-37.4-8.3-17.2-115,8.9-91.6,11.9,10.6,22.2,85.4-8.9,91.6Z"/>
  <path class="st4" d="M831.4,579c-11.1.5-8.3-7.8-7.9-37.3.3-25.5,38.3-2.3,21.3,28-3.2,5.6-12.2,8.8-13.4,9.2h0Z"/>
  <path class="st1" d="M653.5,546.5c1.5-11.7.8-12.1,2.6-13.4,17.6-12.5,33.4,36.2,8.6,43.3-15.8,4.5-11.5-11.6-11.2-29.9h0Z"/>
  <path class="st7" d="M941.6,553.7c.4-2,4.6-25.2,5-25.6,4.1-4.1,5.4,11,7.6,28,.2,1.4,2.8,20.8-12.6,13-2.8-1.4-.3-14.3,0-15.5h0Z"/>
</svg>